88      a8P          db         88888888ba   88  888b      88         db         
88    ,88'          d88b        88      "8b  ""  8888b     88        d88b        
88  ,88"           d8'`8b       88      ,8P      88 `8b    88       d8'`8b       
88,d88'           d8'  `8b      88aaaaaa8P'  88  88  `8b   88      d8'  `8b      
8888"88,         d8YaaaaY8b     88""""88'    88  88   `8b  88     d8YaaaaY8b     
88P   Y8b       d8""""""""8b    88    `8b    88  88    `8b 88    d8""""""""8b    
88     "88,    d8'        `8b   88     `8b   88  88     `8888   d8'        `8b   
88       Y8b  d8'          `8b  88      `8b  88  88      `888  d8'          `8b  
-------------------------------------------------------------------------------
                    -------------------------------------
            [ Made.in.USA.1966.CRITERION.DVDRip.XviD-KARiNA.avi ]            
                    -------------------------------------

[Synopsis]==================================                                                                

          Made in USA | France | 1966 | Directed by Jean-Luc Godard
                                  
With its giddily complex noir plot and color-drenched widescreen images, Made in 
U.S.A was a final burst of exuberance from Jean-Luc Godard's early sixties barrage 
of delirious movie-movies. Yet this chaotic crime thriller and acidly funny critique of consumerism, starring Anna Karina as the most brightly dressed private investigator in film history, searching for a former lover who might have been assassinated, also points toward the more political cinema that would come to define Godard. Featuring characters with names such as Richard Nixon, Robert McNamara, David Goodis, and Doris Mizoguchi, and appearances by a slapstick Jean-Pierre Leaud and a sweetly singing Marianne Faithfull, this piece of pop art is like a Looney Tunes rendition of The Big Sleep gone New Wave.

[ IMdB: http://www.imdb.com/title/tt0060647/ | Rating: 6.4 / 10 (636 votes) ]
                                     
[General]===================================                                                                 

Complete name                    : Made.in.USA.1966.CRITERION.DVDRip.XviD-KARiNA.avi
Format                           : AVI
File size                        : 1.37 GiB
Duration                         : 1h 25mn
Overall bit rate                 : 2 312 Kbps
Source                           : Criterion NTSC DVD9

[Video]=====================================
                                 
Format                           : MPEG-4 Visual
Codec ID                         : XVID
Bit rate                         : 2 139 Kbps
Width                            : 720 pixels
Height                           : 420 pixels
Display aspect ratio             : 16/9
Frame rate                       : 23.976 fps
Resolution                       : 24 bits
Colorimetry                      : 4:2:0
Scan type                        : Progressive
Bits/(Pixel*Frame)               : 0.295
Stream size                      : 1.27 GiB (93%)

[Audio]=====================================                              

Format                           : MPEG Audio
Format version                   : Version 1
Format profile                   : Layer 3
Bit rate mode                    : Constant
Bit rate                         : 160 Kbps
Channel(s)                       : 2 channels
Sampling rate                    : 48.0 KHz
Resolution                       : 16 bits
Stream size                      : 97.4 MiB (7%)
Alignment                        : Split accross interleaves
Interleave, duration             : 24 ms (0.58 video frame)
Writing library                  : LAME3.98
Language                         : French

[Subtitles]=================================

Format                           : SRT
Language                         : English

[KARiNA]===================================